<?xml version="1.0" encoding="UTF-8" standalone="no"?>
<svg width="1778px" height="412px" viewBox="0 0 1778 412" version="1.1" xmlns="http://www.w3.org/2000/svg" xmlns:xlink="http://www.w3.org/1999/xlink" xmlns:sketch="http://www.bohemiancoding.com/sketch/ns">
    <!-- Generator: Sketch 3.1.1 (8761) - http://www.bohemiancoding.com/sketch -->
    <title>beta 3</title>
    <desc>Created with Sketch.</desc>
    <defs></defs>
    <g id="Page-1" stroke="none" stroke-width="1" fill="none" fill-rule="evenodd" sketch:type="MSPage">
        <g id="beta-3" sketch:type="MSLayerGroup" transform="translate(0.000000, 1.000000)">
            <g id="Page-1" sketch:type="MSShapeGroup">
                <g id="logo-vector">
                    <path d="M91.9759094,377.541121 C110.908065,377.541121 126.590437,371.176699 139.023494,358.447664 C151.456552,345.43576 157.672987,328.746831 157.672987,308.380374 L157.672987,278.679439 C150.89132,290.277005 141.566666,299.187196 129.698748,305.41028 C118.113399,311.633364 105.25668,314.74486 91.1282051,314.74486 C65.131812,314.74486 43.5155702,305.410374 26.2788312,286.741121 C9.04209231,268.354737 0.423852117,246.291406 0.423852117,220.550467 C0.423852117,190.849384 9.74850544,165.957421 28.3980918,145.873832 C47.0476782,125.790242 70.0767463,115.748598 97.4859869,115.748598 C122.634672,115.748598 143.120652,126.780264 158.944544,148.843925 L159.368396,131.023364 C159.933535,121.971606 165.302275,117.445794 175.474776,117.445794 C180.278458,117.445794 184.093089,118.86011 186.918784,121.688785 C190.027048,124.800327 191.581157,128.760412 191.581157,133.569159 C191.298587,166.098917 191.086663,193.67808 190.945379,216.307477 C190.804094,238.936873 190.733453,256.615824 190.733453,269.34486 L191.157305,309.228972 C191.439874,339.212923 182.115221,363.539159 163.183065,382.208411 C143.96834,400.877663 119.809011,410.21215 90.704353,410.21215 C67.8162243,410.21215 48.4605045,406.252065 32.636613,398.331776 C23.0292503,393.805896 18.225641,387.865769 18.225641,380.511215 C18.225641,375.985336 19.7797499,371.883819 22.8880143,368.206542 C25.7137092,364.812133 29.3870575,363.114953 33.9081694,363.114953 C35.0384473,363.114953 36.7338388,363.397816 38.9943948,363.963551 C40.6898117,364.529286 42.8090511,365.377876 45.3521765,366.509346 C47.8953019,367.923683 50.0145413,368.772273 51.7099583,369.05514 C63.8604464,374.146754 76.9997306,376.692523 91.1282051,376.692523 L91.9759094,377.541121 L91.9759094,377.541121 Z M35.1797257,219.27757 C35.1797257,237.663955 40.9723134,252.938568 52.5576625,265.101869 C63.8604421,276.982302 77.8474221,282.92243 94.5190221,282.92243 C112.3209,282.92243 127.438141,276.982302 139.871199,265.101869 C152.304256,253.221436 158.520692,236.815369 158.520692,215.883178 C158.520692,194.102383 152.728104,177.13059 141.142755,164.96729 C129.557406,153.086856 115.146578,147.146729 97.909839,147.146729 C80.1079611,146.863862 65.2732853,153.511147 53.4053667,167.088785 C41.5374481,180.666423 35.6035778,198.062511 35.6035778,219.27757 L35.1797257,219.27757 L35.1797257,219.27757 Z M430.209899,238.795327 C430.209899,247.847086 430.421823,257.393719 430.845677,267.435514 C431.269531,277.477309 431.76402,288.013964 432.329159,299.045794 C432.329159,308.663288 426.254006,313.471963 414.103518,313.471963 C407.886989,313.471963 403.931076,310.926194 402.235659,305.834579 C400.540242,300.742965 399.268698,291.408479 398.42099,277.830841 C384.292515,302.44031 361.40473,314.74486 329.756947,314.74486 C303.195415,314.74486 281.43789,305.693237 264.483721,287.58972 C247.529551,269.486202 239.052594,247.422872 239.052594,221.399065 C239.052594,191.415115 248.377247,166.38172 267.026834,146.298131 C285.67642,126.214541 308.705488,116.172897 336.114729,116.172897 C363.523969,116.172897 384.433798,127.204563 398.844842,149.268224 C398.844842,141.91367 399.26869,136.114974 400.116398,131.871963 C401.246676,122.254469 406.332851,117.445794 415.375075,117.445794 C421.874173,117.445794 426.112652,119.284405 428.090638,122.961682 C430.351194,126.921827 431.481455,132.861954 431.481455,140.782243 L431.057603,173.87757 L430.209899,238.795327 L430.209899,238.795327 Z M273.808468,221.823364 C273.808468,239.926882 279.601055,255.060064 291.186404,267.223364 C302.489184,279.103798 316.476164,285.043925 333.147764,285.043925 C351.514781,285.043925 366.914587,278.679503 379.347645,265.950467 C391.498133,253.504299 397.573286,237.098233 397.573286,216.731776 C397.573286,195.233849 391.498133,178.403488 379.347645,166.240187 C366.914587,153.794019 352.503759,147.571028 336.114729,147.571028 C318.87799,147.571028 304.325879,154.501177 292.457961,168.361682 C280.590042,182.505055 274.656172,199.901143 274.656172,220.550467 L273.808468,221.823364 L273.808468,221.823364 Z M339.081694,379.662617 C332.582595,379.662617 327.213855,377.258279 322.975313,372.449533 C318.736771,367.640786 316.758814,361.700658 317.041383,354.628972 C317.606522,347.557286 320.14961,342.182884 324.670722,338.505607 C329.474403,334.545463 334.984425,332.565421 341.200954,332.565421 C348.265191,332.565421 353.775214,334.686895 357.731187,338.929907 C361.68716,343.455786 363.665116,348.830187 363.665116,355.053271 C363.665116,362.124957 361.404594,367.782222 356.883482,372.025234 C352.079801,376.268246 346.145931,378.38972 339.081694,378.38972 L339.081694,379.662617 L339.081694,379.662617 Z M626.453429,130.599065 C631.822249,134.276342 634.506619,138.943585 634.506619,144.600935 C634.506619,148.843946 633.093793,152.521168 630.268098,155.63271 C627.159833,159.02712 623.627768,160.724299 619.671795,160.724299 C618.541517,160.724299 612.890212,158.744257 602.71771,154.784112 C593.392917,150.823968 583.644416,148.843925 573.471914,148.843925 C555.952606,148.843925 541.541778,156.198369 530.238998,170.907477 C518.653649,185.899452 512.861061,201.739792 512.861061,218.428972 C512.861061,236.532489 518.229801,251.807103 528.967442,264.253271 C539.705083,276.699439 553.692062,282.92243 570.928801,282.92243 C585.904984,282.92243 598.05529,279.952366 607.380083,274.01215 C615.574599,269.48627 621.084621,267.223364 623.910316,267.223364 C627.866289,267.223364 631.257072,269.061975 634.082767,272.739252 C637.191031,276.699397 638.74514,280.51805 638.74514,284.195327 C638.74514,288.721206 636.625901,292.681291 632.387358,296.075701 C616.846036,309.087604 596.925186,315.593458 572.62421,315.593458 C543.236983,315.593458 520.066632,305.834677 503.112463,286.316822 C486.158293,266.5161 477.822618,244.877064 478.105188,221.399065 C478.387757,193.960922 487.712411,169.351822 506.079428,147.571028 C524.163875,126.073101 547.616791,115.324299 576.438879,115.324299 C595.653604,115.324299 612.607519,119.708679 627.301133,128.47757 L626.453429,130.599065 L626.453429,130.599065 Z M682.82576,21.1299065 C682.82576,6.98653364 689.183478,-0.085046729 701.899106,-0.085046729 C712.919316,-0.085046729 718.429338,6.27937561 718.429338,19.0084112 L718.429338,35.9803738 L718.429338,52.5280374 C718.429338,59.5997238 718.288055,68.0856203 718.005486,77.9859813 C717.722916,87.8863423 717.581634,98.9887235 717.581634,111.293458 L717.581634,152.238318 C723.233024,140.640752 731.992547,131.164834 743.860465,123.81028 C755.163245,116.738594 768.302529,113.202804 783.278712,113.202804 C805.601702,113.202804 823.403313,121.264405 836.684079,137.38785 C849.964845,153.794163 856.605128,174.160315 856.605128,198.486916 L856.605128,295.651402 C856.605128,306.400365 850.388693,311.774766 837.955635,311.774766 C832.869384,311.774766 828.630905,310.501882 825.240072,307.956075 C821.849238,305.410268 820.153846,301.733046 820.153846,296.924299 C820.718985,279.952252 821.213474,263.546185 821.637329,247.705607 C822.061183,231.86503 822.273107,216.590416 822.273107,201.881308 C822.273107,184.343526 818.034628,170.62466 809.557543,160.724299 C801.080459,151.106805 789.212718,146.298131 773.953965,146.298131 C758.130074,146.298131 744.566942,152.37969 733.264162,164.542991 C721.961383,176.706291 716.310078,191.980905 716.310078,210.36729 L716.310078,257.464486 L716.310078,297.348598 C716.310078,307.814694 710.376207,313.047664 698.508289,313.047664 C687.205509,313.047664 681.554204,307.956126 681.554204,297.772897 L681.554204,283.771028 C681.554204,278.396546 681.695487,272.456419 681.978056,265.950467 C682.260626,259.444516 682.401908,254.070115 682.401908,249.827103 L682.401908,240.492523 L681.978056,22.4028037 L682.82576,21.1299065 L682.82576,21.1299065 Z M898.142636,148.419626 C894.469232,140.782205 892.632558,134.842077 892.632558,130.599065 C892.632558,126.638921 894.610515,123.103131 898.566488,119.991589 C902.239891,117.162914 906.47837,115.748598 911.282051,115.748598 C916.368302,115.748598 920.182933,117.445777 922.726058,120.840187 C925.551753,124.517464 928.377406,130.033297 931.203101,137.38785 L986.727728,273.58785 C996.61766,251.524189 1006.36616,228.965847 1015.97352,205.91215 C1025.58089,182.858452 1035.04682,158.885794 1044.37162,133.993458 C1048.61016,122.961627 1054.54403,117.445794 1062.1734,117.445794 C1066.69452,117.445794 1070.933,118.718679 1074.88897,121.264486 C1078.84494,123.810293 1080.8229,127.06322 1080.8229,131.023364 C1081.10547,134.700641 1079.55136,140.640769 1076.16052,148.843925 L1011.31115,292.681308 C1007.63775,300.31873 1004.10568,305.551699 1000.71485,308.380374 C997.606584,311.209048 992.802974,312.623364 986.303876,312.623364 C980.087347,312.623364 975.283738,310.926185 971.892904,307.531776 C968.50207,304.137366 964.687439,297.772944 960.448897,288.438318 L898.566488,147.995327 L898.142636,148.419626 L898.142636,148.419626 Z M1301.64985,238.795327 C1301.64985,247.847086 1301.86178,257.393719 1302.28563,267.435514 C1302.70948,277.477309 1303.20397,288.013964 1303.76911,299.045794 C1303.76911,308.663288 1297.69395,313.471963 1285.54347,313.471963 C1279.32694,313.471963 1275.37103,310.926194 1273.67561,305.834579 C1271.98019,300.742965 1270.70865,291.408479 1269.86094,277.830841 C1255.73247,302.44031 1232.84469,314.74486 1201.1969,314.74486 C1174.63537,314.74486 1152.87784,305.693237 1135.92367,287.58972 C1118.9695,269.486202 1110.49255,247.422872 1110.49255,221.399065 C1110.49255,191.415115 1119.8172,166.38172 1138.46679,146.298131 C1157.11637,126.214541 1180.14544,116.172897 1207.55468,116.172897 C1234.96393,116.172897 1255.87375,127.204563 1270.28479,149.268224 C1270.28479,141.91367 1270.70865,136.114974 1271.55635,131.871963 C1272.68663,122.254469 1277.7728,117.445794 1286.81503,117.445794 C1293.31412,117.445794 1297.5526,119.284405 1299.53059,122.961682 C1301.79114,126.921827 1302.92141,132.861954 1302.92141,140.782243 L1302.49756,173.87757 L1301.64985,238.795327 L1301.64985,238.795327 Z M1145.24842,221.823364 C1145.24842,239.926882 1151.04101,255.060064 1162.62636,267.223364 C1173.92914,279.103798 1187.91612,285.043925 1204.58772,285.043925 C1222.95473,285.043925 1238.35454,278.679503 1250.7876,265.950467 C1262.93808,253.504299 1269.01324,237.098233 1269.01324,216.731776 C1269.01324,195.233849 1262.93808,178.403488 1250.7876,166.240187 C1238.35454,153.794019 1223.94371,147.571028 1207.55468,147.571028 C1190.31794,147.571028 1175.76584,154.501177 1163.89791,168.361682 C1152.02999,182.505055 1146.09612,199.901143 1146.09612,220.550467 L1145.24842,221.823364 L1145.24842,221.823364 Z M1216.45558,80.5317757 C1206.84821,71.480017 1198.58318,63.3476996 1191.66023,56.1345794 C1184.73727,48.9214593 1178.87405,42.6277527 1174.07036,37.253271 C1170.39696,32.7273917 1168.56029,28.4844435 1168.56029,24.5242991 C1168.56029,20.8470221 1170.25567,17.4526635 1173.64651,14.3411215 C1177.31991,11.2295795 1180.99327,9.67383178 1184.66667,9.67383178 C1190.03548,9.67383178 1194.41524,12.0781691 1197.80608,16.8869159 L1235.10507,63.135514 C1237.64819,66.2470561 1238.91974,69.2171198 1238.91974,72.0457944 C1238.91974,74.874469 1237.64819,77.5616695 1235.10507,80.1074766 C1232.56195,82.6532838 1229.73629,83.9261682 1226.62803,83.9261682 C1223.51976,83.9261682 1220.12897,82.5118521 1216.45558,79.6831776 L1216.45558,80.5317757 L1216.45558,80.5317757 Z M1364.80382,139.509346 C1364.80382,132.154792 1366.07536,126.497528 1368.61849,122.537383 C1371.16161,118.860106 1375.82394,117.021495 1382.60561,117.021495 C1388.53957,117.021495 1392.63676,118.577243 1394.89732,121.688785 C1396.87531,124.800327 1398.14684,129.891865 1398.71199,136.963551 L1399.13584,155.63271 C1404.78723,142.620807 1413.82932,132.579163 1426.26237,125.507477 C1439.26057,118.152923 1452.96498,114.475701 1467.37603,114.475701 C1490.82929,114.475701 1508.63091,121.830145 1520.7814,136.539252 C1533.21445,151.531228 1539.43089,171.897379 1539.43089,197.638318 L1539.43089,253.221495 L1539.43089,291.408411 C1539.43089,299.045833 1538.01806,304.420234 1535.19237,307.531776 C1532.0841,310.926185 1526.99793,312.623364 1519.93369,312.623364 C1508.91348,312.623364 1503.40346,307.248963 1503.40346,296.5 C1503.40346,292.822723 1503.4741,287.519038 1503.61538,280.588785 C1503.75667,273.658532 1503.96859,265.10192 1504.25116,254.918692 C1504.81631,234.552235 1504.81631,218.994758 1504.25116,208.245794 C1503.96859,167.795748 1488.85135,147.288165 1458.89899,146.72243 C1449.5742,146.72243 1441.09724,148.278178 1433.46786,151.38972 C1426.12105,154.501262 1420.32846,158.319915 1416.08992,162.845794 C1411.85138,167.654541 1408.46059,173.594669 1405.91747,180.666355 C1403.37435,188.020909 1401.67895,195.233921 1400.83125,202.305607 C1399.98354,209.660161 1399.55969,217.721763 1399.55969,226.490654 L1399.55969,297.348598 C1399.55969,307.814694 1393.48453,313.047664 1381.33405,313.047664 C1370.31384,313.047664 1364.80382,307.814694 1364.80382,297.348598 L1364.80382,275.709346 L1364.80382,241.765421 L1364.80382,184.060748 L1364.80382,139.509346 L1364.80382,139.509346 Z M1677.60668,377.541121 C1696.53884,377.541121 1712.22121,371.176699 1724.65426,358.447664 C1737.08732,345.43576 1743.30376,328.746831 1743.30376,308.380374 L1743.30376,278.679439 C1736.52209,290.277005 1727.19744,299.187196 1715.32952,305.41028 C1703.74417,311.633364 1690.88745,314.74486 1676.75897,314.74486 C1650.76258,314.74486 1629.14634,305.410374 1611.9096,286.741121 C1594.67286,268.354737 1586.05462,246.291406 1586.05462,220.550467 C1586.05462,190.849384 1595.37927,165.957421 1614.02886,145.873832 C1632.67845,125.790242 1655.70751,115.748598 1683.11676,115.748598 C1708.26544,115.748598 1728.75142,126.780264 1744.57531,148.843925 L1744.99917,131.023364 C1745.56431,121.971606 1750.93304,117.445794 1761.10555,117.445794 C1765.90923,117.445794 1769.72386,118.86011 1772.54955,121.688785 C1775.65782,124.800327 1777.21193,128.760412 1777.21193,133.569159 C1776.92935,166.098917 1776.71743,193.67808 1776.57615,216.307477 C1776.43487,238.936873 1776.36422,256.615824 1776.36422,269.34486 L1776.78807,309.228972 C1777.07065,339.212923 1767.74599,363.539159 1748.81383,382.208411 C1729.59911,400.877663 1705.43978,410.21215 1676.33512,410.21215 C1653.44699,410.21215 1634.09128,406.252065 1618.26738,398.331776 C1608.66002,393.805896 1603.85641,387.865769 1603.85641,380.511215 C1603.85641,375.985336 1605.41052,371.883819 1608.51878,368.206542 C1611.34448,364.812133 1615.01782,363.114953 1619.53894,363.114953 C1620.66921,363.114953 1622.36461,363.397816 1624.62516,363.963551 C1626.32058,364.529286 1628.43982,365.377876 1630.98295,366.509346 C1633.52607,367.923683 1635.64531,368.772273 1637.34073,369.05514 C1649.49121,374.146754 1662.6305,376.692523 1676.75897,376.692523 L1677.60668,377.541121 L1677.60668,377.541121 Z M1620.81049,219.27757 C1620.81049,237.663955 1626.60308,252.938568 1638.18843,265.101869 C1649.49121,276.982302 1663.47819,282.92243 1680.14979,282.92243 C1697.95166,282.92243 1713.06891,276.982302 1725.50197,265.101869 C1737.93502,253.221436 1744.15146,236.815369 1744.15146,215.883178 C1744.15146,194.102383 1738.35888,177.13059 1726.77352,164.96729 C1715.18817,153.086856 1700.77735,147.146729 1683.54061,147.146729 C1665.73873,146.863862 1650.90406,153.511147 1639.03614,167.088785 C1627.16821,180.666423 1621.23435,198.062511 1621.23435,219.27757 L1620.81049,219.27757 L1620.81049,219.27757 Z" id="gạchvàng" fill="#FDC700"></path>
                    <path d="M1534.55659,76.5032756 C1531.75915,76.5032756 1529.42799,75.6122561 1527.56303,73.8301915 C1525.69807,72.048127 1524.76561,69.6720755 1524.76561,66.7019672 C1524.76561,63.8167187 1525.78284,61.3982387 1527.81734,59.4464532 C1529.93661,57.4946678 1532.4797,56.5187897 1535.44668,56.5187897 C1538.32888,56.5187897 1540.74482,57.4098088 1542.69455,59.1918738 C1544.64428,60.9739388 1545.61913,63.3499898 1545.61913,66.3200981 C1545.61913,69.3750662 1544.60189,71.8359764 1542.56739,73.7029018 C1540.61766,75.5698273 1538.0322,76.5032756 1534.8109,76.5032756 L1534.55659,76.5032756 L1534.55659,76.5032756 Z M1600.67752,20.2412196 C1602.79679,21.7687038 1603.85641,23.7628895 1603.85641,26.2238364 C1603.85641,28.3453423 1603.17826,30.254669 1601.82192,31.9518738 C1600.38081,33.7339388 1598.68543,34.6249579 1596.73569,34.6249579 C1595.5489,34.6249579 1593.64158,34.1158041 1591.01369,33.0974813 C1589.2335,32.2488789 1587.19903,31.8245841 1584.91022,31.8245841 C1581.1803,31.8245841 1578.04383,33.4793339 1575.5007,36.7888831 C1572.95758,40.0984324 1571.68603,43.7049384 1571.68603,47.6085093 C1571.68603,51.6818007 1572.99997,55.0337298 1575.62786,57.6643971 C1578.25575,60.2950645 1581.477,61.6103785 1585.29169,61.6103785 C1587.91958,61.6103785 1590.58983,60.8466478 1593.30249,59.3191635 C1595.25222,58.2159804 1596.99,57.6643971 1598.51587,57.6643971 C1600.4656,57.6643971 1602.07622,58.5554163 1603.34779,60.3374813 C1604.61935,62.1195458 1605.25512,64.0713024 1605.25512,66.1928084 C1605.25512,68.6537557 1604.1955,70.5630824 1602.07623,71.9208457 C1597.58338,75.4001151 1591.73427,77.1397242 1584.52875,77.1397242 C1579.52728,77.1397242 1575.07687,76.2487047 1571.17741,74.4666401 C1567.19318,72.6845756 1564.05671,70.3933829 1561.7679,67.5929953 C1559.47908,64.7926077 1557.69893,61.7801142 1556.42736,58.5554252 C1555.15579,55.4155964 1554.52002,52.1485263 1554.52002,48.7541168 C1554.52002,40.0983726 1557.44457,32.5034952 1563.29376,25.969257 C1569.14295,19.4350187 1576.56029,16.1679485 1585.546,16.1679485 C1591.56473,16.1679485 1596.6509,17.4832625 1600.80468,20.1139299 L1600.67752,20.2412196 L1600.67752,20.2412196 Z M1645.30915,16.422528 C1647.00457,16.422528 1648.40326,16.6346754 1649.50528,17.0589766 C1657.3042,18.2470199 1663.23807,21.6413785 1667.30707,27.2421542 C1671.37607,32.8429298 1673.41054,39.2497816 1673.41054,46.4629018 C1673.41054,55.2883665 1670.44361,62.5438078 1664.50965,68.2294439 C1658.57569,73.91508 1651.07358,76.7578551 1642.0031,76.7578551 C1633.78033,76.7578551 1626.74446,74.0847975 1620.89527,68.7386028 C1615.04607,63.392408 1612.12153,56.5188317 1612.12153,48.1176682 C1612.12153,38.6133216 1615.04607,30.9335853 1620.89527,25.0782289 C1623.86224,22.1081206 1627.38018,19.944217 1631.44918,18.5864532 C1635.51818,17.2286894 1640.13813,16.5073882 1645.30915,16.422528 L1645.30915,16.422528 L1645.30915,16.422528 Z M1655.99022,46.3356121 C1655.99022,42.3471809 1654.80345,38.9103929 1652.42986,36.0251448 C1649.97151,33.1398967 1646.79265,31.6124354 1642.89319,31.4427149 C1638.65465,31.6124354 1635.34863,33.1398967 1632.97505,36.0251448 C1630.5167,38.9952531 1629.28754,43.0684834 1629.28754,48.2449579 C1629.28754,52.233389 1630.55908,55.5428887 1633.10221,58.173556 C1635.64533,60.8042234 1638.52749,62.1195373 1641.74879,62.1195373 C1645.73302,62.1195373 1649.12381,60.6345055 1651.92124,57.6643971 C1654.71867,54.7791491 1656.11738,50.9604957 1656.11738,46.2083224 L1655.99022,46.3356121 L1655.99022,46.3356121 Z M1685.23602,44.553556 L1685.23602,33.9885093 L1685.23602,27.4967336 L1685.23602,24.3144906 C1685.23602,19.1380161 1688.24533,16.5498177 1694.26407,16.5498177 C1698.41784,16.5498177 1700.87616,18.4591444 1701.63909,22.2778551 L1702.02056,25.5873878 C1703.3769,22.9567204 1705.62329,20.7928168 1708.75981,19.0956121 C1711.89633,17.3984074 1715.03281,16.5498177 1718.16933,16.5498177 C1722.3231,16.5498177 1725.84104,17.4832663 1728.72324,19.3501915 C1731.69022,21.301977 1733.85184,23.762887 1735.20818,26.7329953 C1737.15791,23.762887 1739.74338,21.3444065 1742.96468,19.4774813 C1746.27074,17.610556 1749.7039,16.5922485 1753.26428,16.422528 C1760.72412,16.3376677 1766.31891,18.5015713 1770.04883,22.9143037 C1773.77875,27.4118963 1775.64367,33.3944533 1775.64367,40.8621542 L1775.77083,54.4821542 C1775.77083,59.064607 1775.64367,64.1985741 1775.38936,69.8842102 C1775.21982,74.2120819 1772.33766,76.3759859 1766.74278,76.3759859 C1764.11489,76.3759859 1762.03803,75.7395437 1760.51215,74.4666401 C1758.98627,73.1937366 1758.22335,71.4965573 1758.22335,69.3750514 C1758.22335,68.3567283 1758.24454,66.8716964 1758.28693,64.9199112 C1758.32931,62.9681259 1758.39289,60.5072157 1758.47766,57.5371074 C1758.56243,54.5669991 1758.62601,51.8939417 1758.6684,49.5178551 C1758.71078,47.1417684 1758.73197,45.0202943 1758.73197,43.1533691 C1758.73197,35.0067863 1755.93458,30.933556 1750.3397,30.933556 C1747.37273,30.933556 1744.95679,31.9518636 1743.09183,33.9885093 C1741.1421,36.025155 1740.12487,38.6982124 1740.0401,42.0077616 C1739.95532,43.7049664 1739.91294,45.7415815 1739.91294,48.1176682 L1739.91294,56.1369205 L1739.91294,63.3924345 C1739.91294,65.5139405 1739.87055,67.2959785 1739.78578,68.7386028 C1739.61624,71.1995501 1738.81093,73.0664469 1737.36983,74.3393504 C1735.75918,75.612254 1733.63994,76.2062663 1731.01205,76.1214065 C1725.50194,75.9516858 1722.74693,73.6604942 1722.74693,69.2477616 C1722.8317,61.4406198 1722.89528,55.3307743 1722.93766,50.918042 C1722.98005,46.5053097 1723.00124,43.7049638 1723.00124,42.5169205 C1722.8317,39.2073713 1722.02639,36.4494549 1720.58528,34.2430887 C1719.05941,31.9518623 1716.89778,30.8062663 1714.10035,30.8062663 C1706.55574,30.8062663 1702.86826,36.1523811 1703.03781,46.844771 L1703.03781,69.3750514 C1703.03781,71.666278 1702.14773,73.3634573 1700.36754,74.4666401 C1698.67212,75.569823 1696.51049,76.1214065 1693.8826,76.1214065 C1691.50902,76.1214065 1689.47455,75.5273942 1687.77913,74.3393504 C1686.16848,73.2361675 1685.36317,71.3268408 1685.36317,68.611313 L1685.36317,65.4927149 C1685.36317,64.2622412 1685.40556,62.7984243 1685.49033,61.1012196 L1685.74464,44.0443971 L1685.23602,44.553556 L1685.23602,44.553556 Z" id=".com" fill="#F8C73F"></path>
                </g>
            </g>
        </g>
    </g>
</svg>