<?xml version="1.0" encoding="utf-8"?>
<!-- Generator: Adobe Illustrator 24.2.3, SVG Export Plug-In . SVG Version: 6.00 Build 0)  -->
<svg version="1.1" id="Layer_1" xmlns="http://www.w3.org/2000/svg" xmlns:xlink="http://www.w3.org/1999/xlink" x="0px" y="0px"
	 viewBox="0 0 60 60" style="enable-background:new 0 0 60 60;" xml:space="preserve">
<style type="text/css">
	.st0{fill:#FFFFFF;}
</style>
<path class="st0" d="M33.9,29.7c4.2-1.6,7.2-5.6,7.2-10.4c0-6.1-5-11.1-11.1-11.1s-11.1,5-11.1,11.1c0,4.7,3,8.8,7.2,10.4
	C16.1,31.6,8.6,40.3,8.6,50.8c0,0.5,0.4,0.9,0.9,0.9c0.5,0,0.9-0.4,0.9-0.9c0-10.8,8.8-19.5,19.5-19.5S49.5,40,49.5,50.8
	c0,0.5,0.4,0.9,0.9,0.9c0.5,0,0.9-0.4,0.9-0.9C51.4,40.3,43.9,31.6,33.9,29.7z M20.8,19.4c0-5.1,4.1-9.2,9.2-9.2s9.2,4.1,9.2,9.2
	s-4.1,9.2-9.2,9.2S20.8,24.4,20.8,19.4z"/>
</svg>
