<svg id="Layer_1" data-name="Layer 1" xmlns="http://www.w3.org/2000/svg" viewBox="0 0 60 60"><path d="M50.37,9.75H20.1a4.74,4.74,0,0,0-4.76,4.71l-.2,26.65H9.24a.77.77,0,0,0-.74.79v3.67A6.42,6.42,0,0,0,14.56,52v0H40.05v0c.19,0,.3,0,.43,0h0a6.41,6.41,0,0,0,6.37-6.44V22.26h7.69a.78.78,0,0,0,.74-.8V14.73A5,5,0,0,0,50.37,9.75ZM14.89,50.49h0A4.91,4.91,0,0,1,10,45.57V42.63H34.08v2.92A6.43,6.43,0,0,0,36,50.11a2.77,2.77,0,0,1,.4.38Zm30.46-4.92a4.89,4.89,0,0,1-4.85,4.92h0a4.93,4.93,0,0,1-4.89-4.94V41.9a.78.78,0,0,0-.75-.79H16.66l.19-26.64a3.23,3.23,0,0,1,3.25-3.2H46.79a5.12,5.12,0,0,0-1.44,3.48Zm8.44-30.83v6H46.87v-6a3.51,3.51,0,0,1,3.47-3.48h0a3.46,3.46,0,0,1,3.43,3.47Z"/></svg>