<svg id="Layer_1" data-name="Layer 1" xmlns="http://www.w3.org/2000/svg" viewBox="0 0 60 60"><path d="M48.15,16.34H38.42V14.68a3.33,3.33,0,0,0-3.33-3.33h-10a3.33,3.33,0,0,0-3.33,3.33v1.66H11.85c-1.84,0-3.33.72-3.33,3.33V44.32c0,2.84,1.57,4.33,3.48,4.33H48.65c2,0,2.83-1.49,2.83-4.33V19.42C51.48,17.06,50,16.34,48.15,16.34ZM23.43,14.68A1.67,1.67,0,0,1,25.1,13h10a1.66,1.66,0,0,1,1.66,1.67v1.66H23.43ZM48.22,47H12.85a2.53,2.53,0,0,1-2.67-2.67V29.2a3.3,3.3,0,0,0,1.67.47H26.76v2.49a.85.85,0,0,0,.84.84h5a.84.84,0,0,0,.83-.84V29.67H48.15a3.3,3.3,0,0,0,1.67-.47V44.32C49.82,45.89,49.23,47,48.22,47ZM28.43,31.33V28h3.33v3.33ZM48.15,28H33.42v-.83a.84.84,0,0,0-.83-.84h-5a.85.85,0,0,0-.84.84V28H11.85a1.67,1.67,0,0,1-1.67-1.67V19.86c0-.92.44-1.85,2.07-1.85H48.18a1.49,1.49,0,0,1,1.64,1.66v6.66A1.67,1.67,0,0,1,48.15,28Z"/></svg>