<svg id="Layer_2" data-name="Layer 2" xmlns="http://www.w3.org/2000/svg" viewBox="0 0 60 60"><defs><style>.cls-1{fill:none;stroke:#000;stroke-miterlimit:10;stroke-width:1.5px;}.cls-2{fill:#231f20;}</style></defs><circle class="cls-1" cx="30" cy="30" r="20.16"/><path class="cls-2" d="M34.85,37.57a6.3,6.3,0,0,1-3.8,1.56v2.14a.77.77,0,0,1-.2.55.63.63,0,0,1-.52.22.67.67,0,0,1-.51-.22.77.77,0,0,1-.2-.55V39.16a10.79,10.79,0,0,1-3.09-.61A6.69,6.69,0,0,1,24,37a1,1,0,0,1-.3-.74.76.76,0,0,1,.14-.48.42.42,0,0,1,.37-.21,1,1,0,0,1,.58.26,8.93,8.93,0,0,0,5.35,1.93,5.36,5.36,0,0,0,3.35-.93,3.09,3.09,0,0,0,1.21-2.61,2.22,2.22,0,0,0-.61-1.62,4.1,4.1,0,0,0-1.53-.95c-.61-.22-1.44-.47-2.49-.74A23.89,23.89,0,0,1,27,30a4.94,4.94,0,0,1-2-1.45,4,4,0,0,1-.83-2.64,4.61,4.61,0,0,1,.69-2.48,5,5,0,0,1,1.95-1.78,7,7,0,0,1,2.87-.78V18.72a.76.76,0,0,1,.19-.54.65.65,0,0,1,.52-.22.62.62,0,0,1,.5.22.76.76,0,0,1,.19.54v2.12a9.36,9.36,0,0,1,2.7.66A6,6,0,0,1,35.89,23a1,1,0,0,1,.33.74.72.72,0,0,1-.17.48.47.47,0,0,1-.37.21.85.85,0,0,1-.58-.26,9.13,9.13,0,0,0-2.3-1.48,6.74,6.74,0,0,0-2.57-.45,5.1,5.1,0,0,0-3.31,1,3.22,3.22,0,0,0-1.23,2.66,2.61,2.61,0,0,0,.67,1.86A4.21,4.21,0,0,0,28,28.79a25.79,25.79,0,0,0,2.61.76,25,25,0,0,1,3,.91,4.9,4.9,0,0,1,1.91,1.35,3.63,3.63,0,0,1,.77,2.43A4.35,4.35,0,0,1,34.85,37.57Z"/></svg>