<svg id="Layer_1" data-name="Layer 1" xmlns="http://www.w3.org/2000/svg" viewBox="0 0 60 60"><defs><style>.cls-1{fill:#010101;}</style></defs><path class="cls-1" d="M53.37,8.62H6.63A.63.63,0,0,0,6,9.25V42.53a.62.62,0,0,0,.62.62H23.77v7H18.84a.63.63,0,0,0,0,1.25H41.16a.63.63,0,0,0,0-1.25H36.23v-7H53.37a.62.62,0,0,0,.62-.62V9.25A.63.63,0,0,0,53.37,8.62ZM35,50.13H25v-7H35ZM52.75,41.9H7.25v-32h45.5Z"/><path class="cls-1" d="M15.85,32.68a.55.55,0,0,0,.28-.07L25.5,27.9l4.82,2.71a.62.62,0,0,0,.76-.12L42,18.8l-.29,4.55a.62.62,0,0,0,.58.67h0a.63.63,0,0,0,.62-.59l.37-5.73a.62.62,0,0,0-.58-.66h0a.6.6,0,0,0-.36-.14h0L36.59,17a.62.62,0,0,0,0,1.24h0l4.2-.09L30.5,29.28l-4.68-2.63a.65.65,0,0,0-.59,0L15.57,31.5a.62.62,0,0,0-.27.84A.63.63,0,0,0,15.85,32.68Z"/></svg>