<svg id="Layer_2" data-name="Layer 2" xmlns="http://www.w3.org/2000/svg" viewBox="0 0 60 60"><defs><style>.cls-1{stroke:#000;stroke-miterlimit:10;stroke-width:0.23px;}</style></defs><path d="M47.09,29.17a.9.9,0,0,0-.88-.93.92.92,0,0,0-.93.93v9.9a8.91,8.91,0,0,1,1.81,1.14Z"/><path d="M33.12,49.91c-.07-.23-.14-.46-.2-.69H14.7V29.81a.92.92,0,0,0-.94-.89.89.89,0,0,0-.88.89V50.15a.89.89,0,0,0,.88.89H33.6A10.36,10.36,0,0,1,33.12,49.91Z"/><path d="M53.46,29.72,42.33,18.54V10.82a.94.94,0,0,0-1-.94.92.92,0,0,0-.89.94V16.7L30.63,6.78A.9.9,0,0,0,30,6.49a1,1,0,0,0-.65.29L6.56,29.57a1,1,0,0,0-.29.7.75.75,0,0,0,.26.54.82.82,0,0,0,.61.32,1,1,0,0,0,.7-.29L30,8.72l.19.2L52.14,31.05a.94.94,0,0,0,.66.22,1.07,1.07,0,0,0,.7-.25A1,1,0,0,0,53.46,29.72Z"/><path class="cls-1" d="M53.31,48a2.05,2.05,0,0,0-.86-1.39l-8.84-6.5a4.66,4.66,0,0,0-3.06-.76l-4.91.75a2.1,2.1,0,0,0-1.75,2.38l.75,4.91a4.65,4.65,0,0,0,1.67,2.71l8.8,6.51A2.1,2.1,0,0,0,48,56.13l4.86-6.61A2.06,2.06,0,0,0,53.31,48Zm-1.44.78L47,55.36a.77.77,0,0,1-1.09.16L37.08,49A3.37,3.37,0,0,1,36,47.18l-.75-4.91a.79.79,0,0,1,.66-.89l4.9-.75a3.34,3.34,0,0,1,2.09.52l8.85,6.5a.8.8,0,0,1,.13,1.1Z"/><circle class="cls-1" cx="38.48" cy="43.88" r="1.09"/></svg>