<svg id="Layer_1" data-name="Layer 1" xmlns="http://www.w3.org/2000/svg" viewBox="0 0 60 60"><defs><style>.cls-1,.cls-2{fill:none;stroke:#000;stroke-miterlimit:10;stroke-width:1.5px;}.cls-2{stroke-linecap:round;}</style></defs><path d="M48.31,15.72a4.06,4.06,0,0,1,4.06,4.06V40.22a4.06,4.06,0,0,1-4.06,4.06H11.69a4.06,4.06,0,0,1-4.06-4.06V19.78a4.06,4.06,0,0,1,4.06-4.06H48.31m0-1.5H11.69a5.56,5.56,0,0,0-5.56,5.56V40.22a5.56,5.56,0,0,0,5.56,5.56H48.31a5.56,5.56,0,0,0,5.56-5.56V19.78a5.56,5.56,0,0,0-5.56-5.56Z"/><path class="cls-1" d="M7.05,20.77c.49.12,45.83,0,45.83,0"/><path class="cls-1" d="M7.05,25.49c.49.12,45.83,0,45.83,0"/><path class="cls-2" d="M15.63,32.88c.14.11,12.25,0,12.25,0"/><path class="cls-2" d="M15.63,37.17c.14.11,12.25,0,12.25,0"/><path d="M43.46,31.54A1.53,1.53,0,0,1,45,33.06v3.32a1.52,1.52,0,0,1-1.52,1.51h-3.4a1.52,1.52,0,0,1-1.52-1.51V33.06a1.52,1.52,0,0,1,1.52-1.52h3.4m0-1.5h-3.4a3,3,0,0,0-3,3v3.32a3,3,0,0,0,3,3h3.4a3,3,0,0,0,3-3V33.06a3,3,0,0,0-3-3Z"/></svg>