<?xml version="1.0" encoding="utf-8"?>
<!-- Generator: Adobe Illustrator 24.2.3, SVG Export Plug-In . SVG Version: 6.00 Build 0)  -->
<svg version="1.1" id="Layer_1" xmlns="http://www.w3.org/2000/svg" xmlns:xlink="http://www.w3.org/1999/xlink" x="0px" y="0px"
	 viewBox="0 0 60 60" style="enable-background:new 0 0 60 60;" xml:space="preserve">
<path d="M29.2,25.5c1.9-0.9,3.3-2.9,3.3-5.1c0,0,0,0,0,0c0-3.1-2.5-5.7-5.7-5.7c-3.1,0-5.7,2.5-5.7,5.7c0,2.3,1.4,4.3,3.3,5.2
	c-4.6,1-8.2,5.1-8.3,10.1c0,0.4,0.3,0.8,0.8,0.8c0.4,0,0.8-0.3,0.8-0.8c0.2-4.8,4-8.7,8.9-8.9c5.1-0.2,9.3,3.8,9.5,8.9c0,0,0,0,0,0
	c0,0.4,0.3,0.7,0.8,0.7c0.4,0,0.8-0.3,0.8-0.8C37.4,30.7,33.9,26.6,29.2,25.5z M22.7,20.4c0-2.3,1.9-4.2,4.2-4.2s4.2,1.9,4.2,4.2
	s-1.9,4.2-4.2,4.2S22.7,22.7,22.7,20.4z"/>
<path d="M26.9,5.6c-11,0-20,9-20,20s9,20,20,20c11,0,20-9,20-20C46.9,14.5,37.9,5.6,26.9,5.6z M26.9,44C16.7,44,8.4,35.7,8.4,25.6
	S16.7,7.1,26.9,7.1c10.2,0,18.5,8.3,18.5,18.5C45.4,35.7,37.1,44,26.9,44z"/>
<path d="M52.3,54.6c-0.3,0-0.5-0.1-0.7-0.3L39,41.7c-0.4-0.4-0.3-1.1,0.1-1.4c0.4-0.3,0.9-0.3,1.3,0l12.7,12.7c0.4,0.4,0.4,1,0,1.4
	C52.9,54.5,52.6,54.6,52.3,54.6z"/>
</svg>
