<svg id="Layer_1" data-name="Layer 1" xmlns="http://www.w3.org/2000/svg" viewBox="0 0 60 60"><path d="M21.47,36.5A15.59,15.59,0,1,1,36.58,24.67l-1.45-.36A14.07,14.07,0,1,0,21.47,35a14.52,14.52,0,0,0,2.46-.22l.26,1.48A15.45,15.45,0,0,1,21.47,36.5Z"/><path d="M38.53,54.63A15.57,15.57,0,1,1,54.1,39.07,15.59,15.59,0,0,1,38.53,54.63Zm0-29.63A14.07,14.07,0,1,0,52.6,39.07,14.08,14.08,0,0,0,38.53,25Z"/><path d="M25.63,24.79a8.69,8.69,0,0,1-1.52.95,2.93,2.93,0,0,1-1.26.28c-1.65,0-2.62-1-3-3.06h2.57a.66.66,0,0,0,.49-.2.63.63,0,0,0,.2-.47A.66.66,0,0,0,23,21.8a.65.65,0,0,0-.5-.19H19.74c0-.18,0-.41,0-.69s0-.51,0-.68h2.71a.68.68,0,0,0,.69-.69.63.63,0,0,0-.2-.48.69.69,0,0,0-.49-.18H19.88c.38-2.06,1.35-3.05,3-3.05a3.66,3.66,0,0,1,1.39.27,5,5,0,0,1,1.38,1,1,1,0,0,0,.62.23.54.54,0,0,0,.45-.24.82.82,0,0,0,.18-.54,1,1,0,0,0-.33-.71,4.9,4.9,0,0,0-1.77-1.14,5.54,5.54,0,0,0-2-.38,4.22,4.22,0,0,0-3.13,1.23,6.16,6.16,0,0,0-1.55,3.37H16.76a.69.69,0,0,0-.49.18.64.64,0,0,0-.2.48.68.68,0,0,0,.69.69H18c0,.17,0,.39,0,.68s0,.52,0,.69H16.76a.66.66,0,0,0-.49.19.68.68,0,0,0-.2.49.63.63,0,0,0,.2.47.66.66,0,0,0,.49.2h1.37a6.12,6.12,0,0,0,1.54,3.37,4.21,4.21,0,0,0,3.14,1.24,5.18,5.18,0,0,0,1.92-.39,6.43,6.43,0,0,0,1.81-1.12,1,1,0,0,0,.33-.72.89.89,0,0,0-.17-.54C26.48,24.5,26.13,24.47,25.63,24.79Z"/><path d="M42.65,40.15a3.52,3.52,0,0,0-1.42-1,16.8,16.8,0,0,0-2.13-.66,17,17,0,0,1-1.77-.53,2.73,2.73,0,0,1-1-.66,1.47,1.47,0,0,1-.4-1.1,1.88,1.88,0,0,1,.75-1.6,3.26,3.26,0,0,1,2.08-.6,4.64,4.64,0,0,1,1.69.29,6.25,6.25,0,0,1,1.51.94,1,1,0,0,0,.59.23.59.59,0,0,0,.46-.25.83.83,0,0,0,.18-.53.9.9,0,0,0-.34-.71,4.57,4.57,0,0,0-1.55-1,7,7,0,0,0-1.75-.44V31.22a.84.84,0,0,0-.21-.59.73.73,0,0,0-.56-.22.77.77,0,0,0-.56.23.83.83,0,0,0-.22.58v1.26a5,5,0,0,0-1.93.6,3.77,3.77,0,0,0-1.42,1.32,3.47,3.47,0,0,0-.5,1.83,3,3,0,0,0,.62,2,3.86,3.86,0,0,0,1.49,1.09,16.88,16.88,0,0,0,2.23.69,16.29,16.29,0,0,1,1.67.48,2.73,2.73,0,0,1,1,.59,1.31,1.31,0,0,1,.36,1,1.83,1.83,0,0,1-.74,1.58,3.53,3.53,0,0,1-2.13.56,6.09,6.09,0,0,1-3.54-1.24c-.47-.3-.81-.29-1.06,0a.82.82,0,0,0-.17.53.86.86,0,0,0,.33.71A5,5,0,0,0,36,45.25a7.73,7.73,0,0,0,2,.43v1.24a.84.84,0,0,0,.21.59.74.74,0,0,0,.57.22.73.73,0,0,0,.56-.22.84.84,0,0,0,.21-.59V45.66a4.65,4.65,0,0,0,2.65-1.19A3.27,3.27,0,0,0,43.24,42,2.72,2.72,0,0,0,42.65,40.15Z"/></svg>