<svg id="Layer_1" data-name="Layer 1" xmlns="http://www.w3.org/2000/svg" viewBox="0 0 60 60"><path d="M11.44,50.2a2.29,2.29,0,0,0,2.28,2.29H46.28a2.29,2.29,0,0,0,2.28-2.29v-21h.68c.85,0,2.28-.23,2.28-1.72V18.65a2.28,2.28,0,0,0-2.28-2.28H30.8l.06-.31.11-.5A8.08,8.08,0,0,1,38.2,9.13V7.51a9.8,9.8,0,0,0-7.62,4.7l-.36.61-.22.36-.22-.36-.36-.61a9.8,9.8,0,0,0-7.62-4.7V9.13A8.08,8.08,0,0,1,29,15.56l.11.5.06.31H10.76a2.28,2.28,0,0,0-2.28,2.28v8.88c0,1.49,1.43,1.72,2.28,1.72h.68v21ZM22.32,29.48V51H13.7a.78.78,0,0,1-.78-.78V30a.78.78,0,0,1,.78-.78h8.62Zm15.41-1.95V17.89H49.24a.78.78,0,0,1,.78.78V27a.78.78,0,0,1-.78.78H37.73Zm0,23.2V29.23h8.55a.78.78,0,0,1,.78.78V50.2a.78.78,0,0,1-.78.78H37.73Zm-13.9-23.2V17.89H36.17v9.89H23.83Zm0,23.2V29.23H36.17V51H23.83ZM10.74,27.78A.78.78,0,0,1,10,27V18.67a.78.78,0,0,1,.78-.78H22.32v9.89H10.74Z"/></svg>