<svg id="Layer_1" data-name="Layer 1" xmlns="http://www.w3.org/2000/svg" viewBox="0 0 60 57.77"><path d="M47.09,29.29a.9.9,0,0,0-.88-.93.92.92,0,0,0-.93.93v20H34.47V37.59a.91.91,0,0,0-.88-.9H26.44a.94.94,0,0,0-1,.9V49.33H14.7V29.93a.92.92,0,0,0-.94-.89.89.89,0,0,0-.88.89V50.27a.89.89,0,0,0,.88.89H26.44a.88.88,0,0,0,.88-.89V38.53h5.33V50.27a.92.92,0,0,0,.94.89H46.21a.88.88,0,0,0,.88-.89Z"/><path d="M53.46,29.83,42.33,18.65V10.94a.94.94,0,0,0-1-.94.92.92,0,0,0-.89.94v5.88L30.63,6.9A.9.9,0,0,0,30,6.61a1,1,0,0,0-.65.29L6.56,29.69a.94.94,0,0,0-.29.7.75.75,0,0,0,.26.54.86.86,0,0,0,.61.32,1,1,0,0,0,.7-.29L30,8.84l.2.2L52.14,31.17a.94.94,0,0,0,.66.22,1.07,1.07,0,0,0,.7-.25A1,1,0,0,0,53.46,29.83Z"/></svg>