<svg id="Layer_1" data-name="Layer 1" xmlns="http://www.w3.org/2000/svg" viewBox="0 0 60 60"><path d="M26.37,54.24a4.54,4.54,0,0,0,4.45-4.6v-19c0-1.87,1.89-3.38,4.21-3.38s4.2,1.52,4.2,3.32a.77.77,0,1,0,1.54,0c0-1.8,1.92-3.32,4.2-3.32s4.21,1.52,4.21,3.32a.8.8,0,0,0,.76.8H50a.79.79,0,0,0,.78-.8,21.62,21.62,0,0,0-6.07-15.13A20.33,20.33,0,0,0,31.47,9.24l-.41,0h-.19V6.8a.77.77,0,1,0-1.54,0V9.2h-.19l-.4,0a20.33,20.33,0,0,0-13.28,6.22A21.62,21.62,0,0,0,9.39,30.59a.77.77,0,1,0,1.54,0c0-1.8,1.92-3.32,4.2-3.32s4.21,1.52,4.21,3.32a.77.77,0,1,0,1.53,0c0-1.8,1.93-3.32,4.21-3.32s4.18,1.47,4.2,3.28V49.64a2.92,2.92,0,1,1-5.83,0,.77.77,0,1,0-1.53,0A4.53,4.53,0,0,0,26.37,54.24ZM25.08,25.68a6.12,6.12,0,0,0-4.51,1.88l-.31.35-.15.16L20,27.91l-.32-.35a6.12,6.12,0,0,0-4.51-1.88,6.45,6.45,0,0,0-2.68.57l-.83.38-.39.18.11-.41.24-.91A19.3,19.3,0,0,1,30.1,10.79,19.31,19.31,0,0,1,48.64,25.54l.24.93.1.42-.39-.19-.84-.4A6.39,6.39,0,0,0,45,25.68a6.14,6.14,0,0,0-4.51,1.88l-.31.35-.15.16-.15-.16-.32-.35a6.34,6.34,0,0,0-9,0l-.32.35-.15.16-.15-.16-.31-.35A6.14,6.14,0,0,0,25.08,25.68Z"/></svg>