<svg xmlns="http://www.w3.org/2000/svg" viewBox="0 0 60 60"><defs><style>.cls-1,.cls-2{fill:none;stroke:#010101;}.cls-1{stroke-miterlimit:10;stroke-width:1.34px;}.cls-2{stroke-linecap:round;stroke-linejoin:round;stroke-width:1.35px;}.cls-3{fill:#010101;}</style></defs><g id="Layer_2" data-name="Layer 2"><path class="cls-1" d="M14.29,47.61V12.82a4.21,4.21,0,0,1,4.26-4.15H44.4a.9.9,0,0,1,.91.88l.44,32.75"/><path class="cls-2" d="M45.67,51.33H19a4.68,4.68,0,0,1-4.77-4.59h0A4.68,4.68,0,0,1,19,42.15H45.67a9.66,9.66,0,0,0-1.25,4.57h0A10,10,0,0,0,45.67,51.33Z"/><path class="cls-3" d="M34.3,30a2.92,2.92,0,0,0-.18-2.55,3.09,3.09,0,0,0-1.94-1.57h0l-4-1.15a1.66,1.66,0,0,1-.93-.64A1.8,1.8,0,0,1,26.94,23a1.61,1.61,0,0,1,.51-1.16,1.64,1.64,0,0,1,1.2-.51h2.49a3,3,0,0,1,1.75.53c.15,0,.19,0,.22,0l.74-.74c.07-.08.07-.12.06-.14a.16.16,0,0,0-.08-.12,4.19,4.19,0,0,0-2.69-1,.42.42,0,0,1-.43-.36V17.93a.21.21,0,0,0-.18-.18H29.46a.21.21,0,0,0-.18.18v1.61a.36.36,0,0,1-.36.36h-.27a3.16,3.16,0,0,0-3.14,3.45,3.24,3.24,0,0,0,.78,1.78A3.74,3.74,0,0,0,28,26.2l3.77,1.07a1.71,1.71,0,0,1,.93.64A1.83,1.83,0,0,1,33.05,29a1.74,1.74,0,0,1-1.71,1.67H28.85a3,3,0,0,1-1.75-.54H27a.15.15,0,0,0-.12,0l-.74.74c-.07.07-.07.11-.06.13a.15.15,0,0,0,.08.12,4.14,4.14,0,0,0,2.69,1,.42.42,0,0,1,.43.36v1.62s0,.05.06.11.1.07.12.07h1.07s.06,0,.12-.07.06-.1.06-.11V32.46a.36.36,0,0,1,.36-.36,3.61,3.61,0,0,0,2.06-.58A2.75,2.75,0,0,0,34.3,30Z"/></g></svg>