<svg id="Layer_1" data-name="Layer 1" xmlns="http://www.w3.org/2000/svg" viewBox="0 0 60 60"><path d="M30,50.91A20.91,20.91,0,1,1,50.91,30,20.93,20.93,0,0,1,30,50.91Zm0-40.32A19.41,19.41,0,1,0,49.41,30,19.44,19.44,0,0,0,30,10.59Z"/><path d="M22.51,41.14a.73.73,0,0,1-.44-.15.75.75,0,0,1-.17-1l15-20.77a.75.75,0,0,1,1.22.87l-15,20.77A.75.75,0,0,1,22.51,41.14Z"/><path d="M25.68,25.27a3.56,3.56,0,0,1-3.44-3.67,3.57,3.57,0,0,1,3.44-3.68,3.68,3.68,0,0,1,0,7.35Zm0-5.85a2.07,2.07,0,0,0-1.94,2.18,2,2,0,1,0,3.88,0A2.07,2.07,0,0,0,25.68,19.42Z"/><path d="M34.32,42.08a3.68,3.68,0,1,1,3.44-3.68A3.57,3.57,0,0,1,34.32,42.08Zm0-5.85a2.19,2.19,0,1,0,1.94,2.17A2.06,2.06,0,0,0,34.32,36.23Z"/></svg>