<svg id="Layer_1" data-name="Layer 1" xmlns="http://www.w3.org/2000/svg" xmlns:xlink="http://www.w3.org/1999/xlink" viewBox="0 0 60 60"><defs><style>.cls-1{clip-path:url(#clip-path);}</style><clipPath id="clip-path"><path d="M35.7,50.28c-2.31,0-10-.75-19.08-9.8C8.91,32.79,6.07,27.07,6.84,20.76a10.09,10.09,0,0,1,.61-2.48A9.91,9.91,0,0,1,8.7,16a.63.63,0,0,1,.17-.31l1.56-1.57a3.65,3.65,0,0,1,5.14-.07l5.54,5.53a3.52,3.52,0,0,1,1,2.5A3.69,3.69,0,0,1,21,24.73l-2.4,2.39a27.82,27.82,0,0,0,4.77,6.59A27.24,27.24,0,0,0,30,38.43l.06,0,2.39-2.38A3.65,3.65,0,0,1,37.55,36l5.54,5.53h0A3.64,3.64,0,0,1,43,46.66l-1.59,1.56a.92.92,0,0,1-.3.18,10,10,0,0,1-4.74,1.85A5.56,5.56,0,0,1,35.7,50.28ZM10.13,16.57a.81.81,0,0,1-.1.18,8.25,8.25,0,0,0-1.18,2.07,8.91,8.91,0,0,0-.52,2.11c-.71,5.81,2,11.16,9.35,18.49,10.13,10.11,18.2,9.38,18.54,9.34a8.56,8.56,0,0,0,2.12-.53,8.4,8.4,0,0,0,2.07-1.17l.15-.09L42,45.6a2.13,2.13,0,0,0,.07-3l-5.54-5.53a2.14,2.14,0,0,0-3,.08l-2.79,2.79a.76.76,0,0,1-.89.12l-.56-.31a28.4,28.4,0,0,1-6.88-5,28.37,28.37,0,0,1-5-6.87l-.3-.54a.74.74,0,0,1,.12-.9L20,23.67a2.25,2.25,0,0,0,.66-1.57,2,2,0,0,0-.59-1.44l-5.54-5.53a2.14,2.14,0,0,0-3,.08Z"/></clipPath></defs><path d="M35.7,50.28c-2.31,0-10-.75-19.08-9.8C8.91,32.79,6.07,27.07,6.84,20.76a10.09,10.09,0,0,1,.61-2.48A9.91,9.91,0,0,1,8.7,16a.63.63,0,0,1,.17-.31l1.56-1.57a3.65,3.65,0,0,1,5.14-.07l5.54,5.53a3.52,3.52,0,0,1,1,2.5A3.69,3.69,0,0,1,21,24.73l-2.4,2.39a27.82,27.82,0,0,0,4.77,6.59A27.24,27.24,0,0,0,30,38.43l.06,0,2.39-2.38A3.65,3.65,0,0,1,37.55,36l5.54,5.53h0A3.64,3.64,0,0,1,43,46.66l-1.59,1.56a.92.92,0,0,1-.3.18,10,10,0,0,1-4.74,1.85A5.56,5.56,0,0,1,35.7,50.28ZM10.13,16.57a.81.81,0,0,1-.1.18,8.25,8.25,0,0,0-1.18,2.07,8.91,8.91,0,0,0-.52,2.11c-.71,5.81,2,11.16,9.35,18.49,10.13,10.11,18.2,9.38,18.54,9.34a8.56,8.56,0,0,0,2.12-.53,8.4,8.4,0,0,0,2.07-1.17l.15-.09L42,45.6a2.13,2.13,0,0,0,.07-3l-5.54-5.53a2.14,2.14,0,0,0-3,.08l-2.79,2.79a.76.76,0,0,1-.89.12l-.56-.31a28.4,28.4,0,0,1-6.88-5,28.37,28.37,0,0,1-5-6.87l-.3-.54a.74.74,0,0,1,.12-.9L20,23.67a2.25,2.25,0,0,0,.66-1.57,2,2,0,0,0-.59-1.44l-5.54-5.53a2.14,2.14,0,0,0-3,.08Z"/><g class="cls-1"><path d="M44.15,51.07H6.68a.75.75,0,0,1-.75-.75V13a.75.75,0,0,1,.75-.75H44.15a.74.74,0,0,1,.75.75V50.32A.74.74,0,0,1,44.15,51.07ZM7.43,49.57h36V13.76h-36Z"/></g><path d="M51,26.66H29.6a2.33,2.33,0,0,1-2.32-2.33V12A2.33,2.33,0,0,1,29.6,9.71H51A2.33,2.33,0,0,1,53.28,12V24.33A2.33,2.33,0,0,1,51,26.66ZM29.6,11.21a.83.83,0,0,0-.82.83V24.33a.83.83,0,0,0,.82.83H51a.83.83,0,0,0,.83-.83V12a.83.83,0,0,0-.83-.83Z"/><path d="M39.85,22.4l-8.66-8.65a.75.75,0,0,1,0-1.06.74.74,0,0,1,1.06,0l7.6,7.59,7.59-7.59a.75.75,0,0,1,1.07,1.06Z"/><path d="M32,23a.74.74,0,0,1-.53-.22.75.75,0,0,1,0-1.06l4.3-4.29a.74.74,0,0,1,1.06,0,.75.75,0,0,1,0,1.06l-4.3,4.29A.74.74,0,0,1,32,23Z"/><path d="M48.84,23a.73.73,0,0,1-.53-.22L44,18.51a.75.75,0,0,1,0-1.06.74.74,0,0,1,1.06,0l4.3,4.29a.75.75,0,0,1,0,1.06A.74.74,0,0,1,48.84,23Z"/></svg>