<svg id="Layer_1" data-name="Layer 1" xmlns="http://www.w3.org/2000/svg" viewBox="0 0 60 60"><path d="M14.2,23.83H10.34a.79.79,0,1,0,0,1.58H14.2a.79.79,0,1,0,0-1.58Z"/><path d="M30.87,5.45a.83.83,0,0,0-1.65,0V9.2a.83.83,0,0,0,1.65,0Z"/><path d="M32.83,53.63H27.28a.81.81,0,0,0-.82.8.8.8,0,0,0,.82.79h5.55a.8.8,0,0,0,.82-.79A.81.81,0,0,0,32.83,53.63Z"/><path d="M44.57,11.62a.74.74,0,0,0,.24-.55.76.76,0,0,0-.24-.56.82.82,0,0,0-.59-.24.79.79,0,0,0-.57.23l-2.73,2.66a.77.77,0,0,0-.25.56.8.8,0,0,0,.24.55.88.88,0,0,0,1.17,0Z"/><path d="M19.66,13.72a.76.76,0,0,0-.23-.55L16.7,10.52a.85.85,0,0,0-1.17,0,.8.8,0,0,0-.24.57h0a.76.76,0,0,0,.23.54l2.74,2.66a.88.88,0,0,0,1.16,0A.76.76,0,0,0,19.66,13.72Z"/><path d="M49.75,23.83H45.9a.79.79,0,1,0,0,1.58h3.85a.79.79,0,1,0,0-1.58Z"/><path d="M34.51,48.94H25.58a.8.8,0,0,0-.82.79.81.81,0,0,0,.82.8h8.93a.82.82,0,0,0,.83-.8A.81.81,0,0,0,34.51,48.94Z"/><path d="M38.71,17.64h0A12.65,12.65,0,0,0,30,14.24h-.48a12.44,12.44,0,0,0-12,12.1,11.88,11.88,0,0,0,2.89,7.8c2.63,3.08,4.36,5.42,4.36,9.86a1.93,1.93,0,0,0,.26,1.43.71.71,0,0,0,.57.22h8.84a.73.73,0,0,0,.59-.23,1.83,1.83,0,0,0,.24-1.32c0-4.42,1.73-6.74,4.54-10.16a11.89,11.89,0,0,0-1.13-16.31ZM38.54,33c-2.93,3.57-4.72,6.06-4.88,10.43l0,.69H26.46l0-.69c-.15-4.19-1.64-6.64-4.73-10.25a10.36,10.36,0,0,1-2.51-6.78A10.83,10.83,0,0,1,29.62,15.84a11,11,0,0,1,8,2.94,10.34,10.34,0,0,1,1,14.18Z"/></svg>