<svg id="Layer_1" data-name="Layer 1" xmlns="http://www.w3.org/2000/svg" viewBox="0 0 60 60"><path d="M25.3,15.25l-.06,0H13.33a4.06,4.06,0,0,0-4.06,4.06V46.89a4.05,4.05,0,0,0,4.06,4H44.67a4.05,4.05,0,0,0,4.06-4v-8h2V28.52h-2V19.35a4.06,4.06,0,0,0-4-4.07H42l-.07-.13-2.69-4.84a2.48,2.48,0,0,0-2.15-1.25,2.55,2.55,0,0,0-1.21.3Zm23.48,15H49v6.91H41.25A3.29,3.29,0,0,1,38,33.86v-.35a3.28,3.28,0,0,1,3.28-3.28ZM43.38,17h1.3a2.41,2.41,0,0,1,2.13,1.38l.14.3.16.36h-3L44,18.9l-.85-1.53L43,17Zm3.4,3.75H47v7.78H41.22a5,5,0,0,0-5,5v.35a5,5,0,0,0,5,5H47v8a2.38,2.38,0,0,1-2.4,2.34H13.33A2.35,2.35,0,0,1,11,46.9V19.35A2.43,2.43,0,0,1,13.33,17h8.82l-.85.48L18.57,19l-.06,0H13.85a.86.86,0,0,0,0,1.71ZM37,10.79a.86.86,0,0,1,.27.05.75.75,0,0,1,.44.33l4.17,7.55.21.37H22l.84-.47,13.85-7.77A1,1,0,0,1,37,10.79Z"/><path d="M41.14,32.27a1.36,1.36,0,1,0,1.36,1.36h0A1.37,1.37,0,0,0,41.14,32.27Z"/></svg>