<svg id="Layer_1" data-name="Layer 1" xmlns="http://www.w3.org/2000/svg" viewBox="0 0 60 60"><path d="M34.4,37.57a.84.84,0,0,0-.59-1.43.85.85,0,0,0-.6.24L25.65,44a.83.83,0,0,0,0,1.18.86.86,0,0,0,1.19,0Z"/><path d="M51.76,22.85,37.15,8.24a4.07,4.07,0,0,0-5.75,0L8.24,31.4a4.07,4.07,0,0,0,0,5.75L22.36,51.27h-2a.84.84,0,1,0,0,1.68H39.61a.84.84,0,0,0,0-1.68H29.09L51.76,28.6A4.06,4.06,0,0,0,51.76,22.85Zm-1.19,4.56h0L27.41,50.57a2.38,2.38,0,0,1-3.37,0L11.82,38.36,34.15,16a.84.84,0,0,0,0-1.19.86.86,0,0,0-1.19,0L10.63,37.17,9.43,36a2.38,2.38,0,0,1,0-3.37L32.58,9.43a2.45,2.45,0,0,1,3.38,0l5.29,5.28-.32.32-22,22a.84.84,0,0,0,0,1.19.9.9,0,0,0,1.19,0L42.44,15.9,50.57,24a2.38,2.38,0,0,1,0,3.37Z"/><path d="M45.78,25.7a1.06,1.06,0,0,0-.32-.77L43.1,22.56a1.1,1.1,0,0,0-1.55,0L37.09,27a1.1,1.1,0,0,0-.32.78,1.07,1.07,0,0,0,.32.77l2.36,2.37a1.13,1.13,0,0,0,1.55,0l4.46-4.47A1.06,1.06,0,0,0,45.78,25.7Zm-3-2.24v0Zm-2.53,6.29L38.28,27.8l4-4.05,1.94,1.95Z"/></svg>