<svg id="Layer_1" data-name="Layer 1" xmlns="http://www.w3.org/2000/svg" viewBox="0 0 60 60"><path d="M51.58,29.46a2.82,2.82,0,0,0-2.81-2.82h-.86l0-.12-.17-.42a17.46,17.46,0,0,0-4.76-6.49l-.17-.15,0,0v-.06l-.05-.22a5.09,5.09,0,0,1,.84-3.88,2,2,0,0,0,0-2.15,2,2,0,0,0-1.72-.93l-.24,0a9.26,9.26,0,0,0-6,2.9l-.27.31-.08.09-.12,0-.4-.11a23.5,23.5,0,0,0-2.92-.55h-.1a.81.81,0,0,0-.51.18.75.75,0,0,0-.29.53.83.83,0,0,0,.17.63.8.8,0,0,0,.54.3,19.79,19.79,0,0,1,3.72.8,1.07,1.07,0,0,0,.25,0,.83.83,0,0,0,.69-.36A7.09,7.09,0,0,1,40.62,14L42,13.69l.39-.09-.17.37-.63,1.3a6.22,6.22,0,0,0-.5,4.46,1,1,0,0,0,.32.77,15.61,15.61,0,0,1,5.11,7.22.83.83,0,0,0,.78.57h1.46A1.16,1.16,0,0,1,50,29.45v4.89a1.17,1.17,0,0,1-1.16,1.17H47.41a.83.83,0,0,0-.79.58A15.23,15.23,0,0,1,42.08,43l-.31.26a7.25,7.25,0,0,0-2.47,5.09v1.89H32.23v-1.8a.84.84,0,0,0-.27-.61.86.86,0,0,0-.55-.21h-.08c-.83.08-1.59.12-2.3.12a21.46,21.46,0,0,1-2.7-.18h-.12a.82.82,0,0,0-.54.2.85.85,0,0,0-.29.62v1.87h-7v-.18l0-.65a10.05,10.05,0,0,0-2.69-6.37,16.57,16.57,0,0,1-3-4.57,14.24,14.24,0,0,1-1.17-3.13A13.67,13.67,0,0,1,11,32a13.41,13.41,0,0,1,.19-2.28.81.81,0,0,0-.68-.94l-.14,0a.83.83,0,0,0-.81.69A15.43,15.43,0,0,0,9.38,32a15.81,15.81,0,0,0,.41,3.56l0,.15a16,16,0,0,0,1.28,3.44,18.26,18.26,0,0,0,3.33,5,8.33,8.33,0,0,1,2.23,5.31v.58s0,0,0,.07a1.92,1.92,0,0,0,1.89,1.74h6.56A1.91,1.91,0,0,0,27,50.18l.06-.65,0-.19h.19l.65,0,1.2,0h.55l.64,0h.18l0,.18.06.63a1.91,1.91,0,0,0,1.89,1.72H39a1.9,1.9,0,0,0,1.9-1.9V48.43a5.74,5.74,0,0,1,1.93-3.91l.25-.22a17.51,17.51,0,0,0,4.67-6.58l.17-.44,0-.12h.76a2.81,2.81,0,0,0,2.81-2.81Z"/><path d="M16.82,25.63A9.15,9.15,0,1,1,26,16.48,9.15,9.15,0,0,1,16.82,25.63Zm0-16.8a7.65,7.65,0,1,0,7.65,7.65A7.66,7.66,0,0,0,16.82,8.83Z"/></svg>