<svg id="Layer_2" data-name="Layer 2" xmlns="http://www.w3.org/2000/svg" viewBox="0 0 60 60"><path d="M36.77,17.5H15c-.81,0-1.12.3-1.12,1.11v6.58c0,.81.3,1.11,1.11,1.11H36.83c.82,0,1.12-.3,1.12-1.11V18.68C38,17.78,37.68,17.5,36.77,17.5Zm-.59,7H15.65V19.25H36.18Z"/><path d="M35.71,32.66H14.87a1,1,0,0,0-.75.28.8.8,0,0,0-.22.59.88.88,0,0,0,.95.85H35.74c.79,0,1.19-.29,1.19-.85a.76.76,0,0,0-.19-.57A1.44,1.44,0,0,0,35.71,32.66Z"/><path d="M23.08,39.78H15c-.51,0-1.11.15-1.13.84a.84.84,0,0,0,.21.59,1.22,1.22,0,0,0,.89.29H27.72a1.2,1.2,0,0,0,.89-.3.79.79,0,0,0,.21-.58c0-.69-.62-.84-1.13-.84Z"/><path d="M51,20.15H43.85V10a.75.75,0,0,0-.07-.33A.84.84,0,0,0,43,9.15H9a.85.85,0,0,0-.85.85V46A4.86,4.86,0,0,0,13,50.85H47A4.86,4.86,0,0,0,51.85,46V21A.85.85,0,0,0,51,20.15Zm-38,29A3.15,3.15,0,0,1,9.85,46V10.85h32.3V46a4.8,4.8,0,0,0,1,2.91l.18.24ZM50.15,46a3.15,3.15,0,0,1-6.3,0V21.85h6.3Z"/></svg>