<svg id="Layer_1" data-name="Layer 1" xmlns="http://www.w3.org/2000/svg" viewBox="0 0 60 60"><path d="M48.84,20.16a.75.75,0,0,1-.26-1.46l4.33-1.57a.75.75,0,1,1,.51,1.41l-4.33,1.57A.74.74,0,0,1,48.84,20.16Z"/><path d="M48.28,45.48a5.07,5.07,0,1,1,5.07-5.07A5.08,5.08,0,0,1,48.28,45.48Zm0-8.64a3.57,3.57,0,1,0,3.57,3.57A3.57,3.57,0,0,0,48.28,36.84Z"/><path d="M53.88,41.16h-2v-.75a3.57,3.57,0,0,0-7.14,0v.75H18v-.75a3.57,3.57,0,0,0-7.14,0v.75H5.69A1.73,1.73,0,0,1,4,39.89a10,10,0,0,1,1.21-8.37A13.86,13.86,0,0,1,14.37,26c1.47-.22,3.47-1.53,5.79-3.06,4.2-2.77,9.43-6.22,16.05-6.48,10.65-.39,19.16,4.55,19.5,8h0c.22,2.27.39,7,.51,10.47.06,1.67.11,3,.14,3.64a2.43,2.43,0,0,1-.66,1.85A2.52,2.52,0,0,1,53.88,41.16Zm-.59-1.5h.59a1,1,0,0,0,1-1c0-.62-.09-2-.15-3.68-.12-3.44-.29-8.15-.51-10.37h0c-.2-2.1-7.57-7-17.94-6.61C30.07,18.19,25,21.51,21,24.18c-2.56,1.69-4.59,3-6.4,3.29a12.35,12.35,0,0,0-8.09,4.88,8.54,8.54,0,0,0-1,7.16.24.24,0,0,0,.21.15H9.46a5.07,5.07,0,0,1,10,0H43.27a5.07,5.07,0,0,1,10,0Z"/><path d="M14.47,45.48a5.07,5.07,0,1,1,5.07-5.07A5.08,5.08,0,0,1,14.47,45.48Zm0-8.64A3.57,3.57,0,1,0,18,40.41,3.57,3.57,0,0,0,14.47,36.84Z"/></svg>