<svg id="Layer_1" data-name="Layer 1" xmlns="http://www.w3.org/2000/svg" viewBox="0 0 60 60"><path d="M52.07,21.82c-.49.07-11.91,1.82-13.33,2.11L39,25.4c1.09-.22,8.45-1.36,11.71-1.86l-1.63,2.81c-1.57,2.7-2.83,3.4-5,3.93l-6.79,1.45,2.11,6.62c.65,2.2.68,3.63-.88,6.34l-1.62,2.8c-1.19-3.07-3.89-10-4.24-11.07-.73-2.19-.87-3.37.09-5l2-3.39c1-1.69,2.06-2.15,4.31-2.6l-.29-1.47c-2.57.51-4.09,1.17-5.32,3.33l-2,3.37c-1.23,2.13-1,3.78-.21,6.26.46,1.37,4.65,12.14,4.83,12.6L36.62,51l3.18-5.51c1.82-3.15,1.77-5,1-7.53L39.2,32.85l5.19-1.11c2.92-.7,4.38-1.82,6-4.64l3.22-5.52Z"/><path d="M22.66,22l1.11-1c-.74-.81-5.49-6.56-7.59-9.1l3.25,0c3.14-.06,4.37.7,5.95,2.33l4.74,5.09,4.6-5.2c1.55-1.69,2.77-2.45,5.89-2.49l3.24,0c-2,2.6-6.63,8.47-7.34,9.3-1.51,1.75-2.45,2.48-4.37,2.51l-3.91,0c-1.92.05-2.91-.67-4.45-2.37l-1.11,1c1.71,1.89,3,2.87,5.4,2.87h.18l3.91,0c2.46,0,3.77-1.05,5.48-3,.94-1.09,8-10.21,8.35-10.59L47,10l-6.36.08c-3.63.05-5.2,1-7,3l-3.51,4-3.62-3.9c-2.09-2.14-3.8-2.82-7.06-2.79L13,10.42l1,1.21C14.33,12,21.68,20.93,22.66,22Z"/><path d="M27.25,31.39c.92,1.62.82,2.73.08,5-.35,1-3,8-4.24,11.08l-1.61-2.8c-1.57-2.71-1.54-4.09-.88-6.33l2.12-6.63-6.78-1.48c-2.27-.54-3.48-1.2-5-3.92L9.25,23.51c3.26.5,10.64,1.65,11.71,1.87,2.26.46,3.35.93,4.32,2.61l2,3.4,1.3-.76-2-3.39c-1.23-2.14-2.76-2.8-5.31-3.33-1.42-.29-12.85-2.05-13.34-2.12l-1.54-.24,3.2,5.54c1.63,2.82,3.09,3.94,6,4.63l5.18,1.14-1.63,5.07c-.74,2.53-.79,4.38,1,7.51L23.35,51l.57-1.46c.18-.46,4.37-11.24,4.83-12.62.71-2.2,1.12-3.93-.2-6.25Z"/></svg>