<?xml version="1.0" encoding="utf-8"?>
<svg version="1.1" xmlns:xlink="http://www.w3.org/1999/xlink" width="30px" height="30px" xmlns="http://www.w3.org/2000/svg">
  <g transform="matrix(1 0 0 1 -754 -2729 )">
    <path d="M 7.47474747474748 2.02020202020202  C 9.7979797979798 0.707070707070707  12.3232323232323 0  15.0505050505051 0  C 17.7777777777778 0  20.3030303030303 0.707070707070707  22.5252525252525 2.02020202020202  C 24.8484848484849 3.33333333333333  26.6666666666667 5.15151515151515  27.979797979798 7.47474747474748  C 29.2929292929293 9.7979797979798  30 12.3232323232323  30 14.949494949495  C 30 17.5757575757576  29.2929292929293 20.2020202020202  27.979797979798 22.4242424242424  C 26.6666666666667 24.7474747474748  24.8484848484849 26.5656565656566  22.5252525252525 27.8787878787879  C 20.2020202020202 29.1919191919192  17.6767676767677 29.8989898989899  15.0505050505051 29.8989898989899  C 12.4242424242424 29.8989898989899  9.7979797979798 29.1919191919192  7.57575757575758 27.8787878787879  C 5.25252525252526 26.5656565656566  3.43434343434344 24.7474747474747  2.12121212121212 22.4242424242424  C 0.808080808080811 20.1010101010101  0.101010101010104 17.5757575757576  0.101010101010104 14.949494949495  C 0.101010101010104 12.3232323232323  0.808080808080811 9.6969696969697  2.12121212121212 7.47474747474748  C 3.33333333333333 5.25252525252525  5.25252525252525 3.33333333333333  7.47474747474748 2.02020202020202  Z M 8.48484848484848 26.3636363636364  C 10.5050505050505 27.4747474747475  12.6262626262626 28.0808080808081  15.0505050505051 28.0808080808081  C 17.4747474747475 28.0808080808081  19.5959595959596 27.4747474747475  21.6161616161616 26.3636363636364  C 23.6363636363636 25.1515151515152  25.1515151515152 23.6363636363636  26.3636363636364 21.6161616161616  C 27.5757575757576 19.5959595959596  28.0808080808081 17.3737373737374  28.0808080808081 15.0505050505051  C 28.0808080808081 12.7272727272727  27.4747474747475 10.5050505050505  26.3636363636364 8.48484848484849  C 25.1515151515152 6.46464646464647  23.6363636363636 4.94949494949495  21.6161616161616 3.73737373737374  C 19.5959595959596 2.52525252525253  17.3737373737374 2.02020202020202  15.050505050505 2.02020202020202  C 12.7272727272727 2.02020202020202  10.5050505050505 2.62626262626263  8.48484848484848 3.73737373737374  C 6.46464646464646 4.94949494949495  4.94949494949495 6.46464646464647  3.73737373737374 8.48484848484849  C 2.52525252525252 10.5050505050505  2.02020202020202 12.7272727272727  2.02020202020202 15.0505050505051  C 2.02020202020202 17.3737373737374  2.62626262626262 19.5959595959596  3.73737373737374 21.6161616161616  C 4.94949494949495 23.6363636363636  6.46464646464646 25.1515151515152  8.48484848484848 26.3636363636364  Z M 12.7272727272727 22.2222222222222  L 23.6363636363636 11.4141414141414  C 23.7373737373737 11.3131313131313  23.8383838383838 11.1111111111111  23.8383838383838 10.9090909090909  C 23.8383838383838 10.7070707070707  23.7373737373737 10.5050505050505  23.6363636363636 10.4040404040404  L 23.1313131313131 9.8989898989899  C 23.030303030303 9.6969696969697  22.8282828282828 9.6969696969697  22.6262626262626 9.6969696969697  C 22.4242424242424 9.6969696969697  22.2222222222222 9.6969696969697  22.020202020202 9.8989898989899  L 12.1212121212121 19.6969696969697  L 7.97979797979798 15.4545454545455  C 7.77777777777778 15.3535353535354  7.67676767676768 15.2525252525253  7.47474747474748 15.2525252525253  C 7.27272727272727 15.2525252525253  7.07070707070707 15.3535353535354  6.96969696969697 15.4545454545455  L 6.46464646464647 15.959595959596  C 6.36363636363637 16.1616161616162  6.26262626262626 16.2626262626263  6.26262626262626 16.4646464646465  C 6.26262626262626 16.6666666666667  6.36363636363636 16.8686868686869  6.46464646464647 16.969696969697  L 11.7171717171717 22.2222222222222  C 11.9191919191919 22.4242424242424  12.020202020202 22.4242424242424  12.2222222222222 22.4242424242424  C 12.4242424242424 22.4242424242424  12.6262626262626 22.3232323232323  12.7272727272727 22.2222222222222  Z " fill-rule="nonzero" fill="#0066b3" stroke="none" transform="matrix(1 0 0 1 754 2729 )" />
  </g>
</svg>